<?xml version="1.0" encoding="UTF-8" standalone="no"?>
<!-- Created with matplotlib (http://matplotlib.org/) -->

<svg
   xmlns:dc="http://purl.org/dc/elements/1.1/"
   xmlns:cc="http://creativecommons.org/ns#"
   xmlns:rdf="http://www.w3.org/1999/02/22-rdf-syntax-ns#"
   xmlns:svg="http://www.w3.org/2000/svg"
   xmlns="http://www.w3.org/2000/svg"
   xmlns:sodipodi="http://sodipodi.sourceforge.net/DTD/sodipodi-0.dtd"
   xmlns:inkscape="http://www.inkscape.org/namespaces/inkscape"
   height="124.97578pt"
   version="1.1"
   viewBox="0 0 314.17594 124.97578"
   width="314.17593pt"
   id="svg2"
   inkscape:version="0.91 r"
   sodipodi:docname="spike_train.svg">
  <metadata
     id="metadata44">
    <rdf:RDF>
      <cc:Work
         rdf:about="">
        <dc:format>image/svg+xml</dc:format>
        <dc:type
           rdf:resource="http://purl.org/dc/dcmitype/StillImage" />
        <dc:title></dc:title>
      </cc:Work>
    </rdf:RDF>
  </metadata>
  <sodipodi:namedview
     pagecolor="#ffffff"
     bordercolor="#666666"
     borderopacity="1"
     objecttolerance="10"
     gridtolerance="10"
     guidetolerance="10"
     inkscape:pageopacity="0"
     inkscape:pageshadow="2"
     inkscape:window-width="1920"
     inkscape:window-height="1050"
     id="namedview42"
     showgrid="false"
     inkscape:zoom="3.9163296"
     inkscape:cx="145.39441"
     inkscape:cy="75.075234"
     inkscape:window-x="0"
     inkscape:window-y="30"
     inkscape:window-maximized="1"
     inkscape:current-layer="axes_1"
     fit-margin-top="0"
     fit-margin-left="0"
     fit-margin-right="0"
     fit-margin-bottom="0" />
  <defs
     id="defs4"
     style="stroke-linecap:butt;stroke-linejoin:round">
    <style
       type="text/css"
       id="style6">
*{stroke-linecap:butt;stroke-linejoin:round;}
  </style>
  </defs>
  <g
     id="figure_1"
     style="stroke-linecap:butt;stroke-linejoin:round"
     transform="translate(51.544003,-186.90489)">
    <g
       id="axes_1"
       style="stroke-linecap:butt;stroke-linejoin:round">
      <g
         id="line2d_4"
         style="stroke-linecap:butt;stroke-linejoin:round"
         transform="matrix(2.0009558,0,0,2.002401,-105.56981,-249.91651)">
        <path
           clip-path="url(#p17645e3b67)"
           d="m 27,265.258 0.1046,2.136 0.1047,-3.481 0.1046,2.809 0.3138,-6.131 0.1047,0.356 0.3139,-3.639 0.1046,0.079 0.1046,-0.435 0.1046,4.548 0.1046,-0.909 0.1047,2.65 0.1046,-1.741 0.1046,0.712 0.1047,-0.83 0.2092,2.61 0.1046,-1.068 0.1046,0.712 0.1047,-1.7 0.1046,0.395 0.1046,1.108 0.1047,-0.119 0.1046,0.989 0.1046,2.887 0.2093,-6.091 0.1046,1.661 0.1046,-3.441 0.2092,4.153 0.1047,-0.593 0.1046,1.345 0.2093,-6.052 0.2092,7.199 0.1046,-2.888 0.1046,1.147 0.1047,-0.672 0.1046,-3.006 0.5231,4.509 0.2093,-6.527 0.2092,4.826 0.2093,2.69 0.1046,-1.108 0.2092,2.374 0.3139,-5.973 0.2093,3.006 0.1046,0.593 0.1046,-5.893 0.1047,3.995 0.2092,-1.938 0.1046,0.909 0.2093,-6.724 0.3138,10.324 0.3139,-5.38 0.2093,2.809 0.1046,-1.701 0.2093,2.927 0.2092,-2.176 0.2093,3.877 0.3138,-4.628 0.1047,1.78 0.1046,3.916 0.1046,-0.475 0.2092,-1.899 0.1047,1.82 0.1046,-3.758 0.2093,2.374 0.1046,-0.356 0.1046,-1.622 0.1046,0.277 0.1047,5.3 0.1046,-0.435 0.2092,-7.476 0.1046,0.435 0.1047,1.938 0.2092,-6.21 0.2093,2.73 0.2092,-7.279 0.1047,1.543 0.1046,6.487 0.1046,-1.424 0.1046,1.582 0.2093,4.945 0.1046,-0.712 0.1046,2.413 0.1047,-1.543 0.2092,-3.995 0.1046,4.826 0.3139,-1.86 0.1046,0.436 0.1047,1.661 0.1046,-1.899 0.2092,1.187 0.1047,-2.848 0.1046,4.47 0.2092,-7.476 0.2093,5.102 0.2092,-3.757 0.1047,-0.04 0.1046,5.063 0.2092,-3.797 0.2093,1.622 0.2092,-3.046 0.1047,-1.582 0.1046,3.125 0.1046,-1.86 0.3139,2.136 0.1046,1.424 0.2092,-2.531 0.1047,-0.277 0.1046,-0.672 0.1046,0.751 0.1047,-2.848 0.2092,9.454 0.1046,-8.228 0.3139,5.222 0.1046,-5.063 0.1047,4.548 0.1046,-1.265 0.1046,2.412 0.1046,-0.079 0.1047,-5.142 0.1046,4.509 0.2092,-5.972 0.1046,-0.475 0.2093,3.6 0.1046,-3.323 0.2093,5.182 0.1046,-0.673 0.1046,0.91 0.1047,-0.514 0.1046,-2.255 0.1046,2.808 0.1046,-4.548 0.2093,5.933 0.2092,-1.147 0.1047,0.554 0.1046,-0.317 0.4185,12.46 0.1046,-1.226 0.2093,-10.957 0.3138,-21.518 0.1047,1.226 0.2092,-4.113 0.2092,4.825 0.2093,8.9 0.1046,0.356 0.3139,10.126 0.1046,-4.707 0.2093,13.132 0.2092,-6.487 0.1047,3.996 0.1046,-4.272 0.1046,4.113 0.1046,-2.927 0.1047,0.119 0.1046,0.435 0.1046,-0.119 0.2092,-2.887 0.1047,0.079 0.2092,3.56 0.1047,-2.729 0.1046,0.276 0.1046,-6.605 0.1046,2.61 0.1047,-2.966 0.1046,0.039 0.1046,3.639 0.1046,-2.927 0.1047,3.165 0.1046,-0.158 0.1046,-4.47 0.4185,7.08 0.1046,-3.797 0.2093,4.628 0.2092,-4.153 0.1047,3.995 0.2092,-4.628 0.1046,0.158 0.1047,1.068 0.1046,-3.797 0.1046,1.977 0.2092,-5.696 0.2093,4.312 0.2093,3.679 0.1046,-4.589 0.1046,0.158 0.1046,0.791 0.1047,-0.237 0.1046,4.074 0.2092,-4.905 0.1047,7.753 0.2092,-7.317 0.2093,8.346 0.1046,-1.187 0.1046,-2.413 0.1046,1.226 0.1046,-0.474 0.1047,0.474 0.1046,-2.056 0.2093,0.87 0.1046,-4.51 0.1046,6.171 0.1046,-1.819 0.1047,-4.352 0.1046,0.752 0.1046,-0.356 0.1046,2.136 0.1047,-3.56 0.1046,1.82 0.2092,-4.114 0.1047,0.989 0.2092,6.803 0.1046,0.712 0.2093,-2.294 0.1046,1.819 0.1046,-1.265 0.1047,0.91 0.1046,-1.464 0.1046,3.995 0.1046,-0.593 0.1047,0.316 0.3138,-6.091 0.1047,4.865 0.2092,-2.136 0.1046,1.78 0.1046,-1.187 0.1047,1.345 0.1046,-0.237 0.2093,-3.283 0.1046,1.226 0.1046,-0.554 0.1046,2.215 0.1047,-1.621 0.1046,3.362 0.1046,-0.95 0.1046,2.651 0.1047,-3.56 0.2092,-8.426 0.2093,11.234 0.1046,-4.509 0.1046,0.949 0.1046,-2.255 0.1047,0.436 0.1046,1.503 0.1046,-3.283 0.1046,1.068 0.1047,-1.939 0.2092,1.741 0.1046,0.039 0.1047,-0.474 0.1046,2.689 0.1046,-3.243 0.1046,0.079 0.1047,1.543 0.1046,-3.323 0.4185,9.651 0.1046,-1.661 0.2092,-6.803 0.1047,6.605 0.1046,-0.514 0.1046,-3.955 0.1047,3.362 0.1046,-2.097 0.2092,3.046 0.1047,-1.463 0.2092,3.283 0.4185,-5.34 0.1046,0.435 0.1047,-0.949 0.1046,-2.453 0.2092,1.385 0.1046,-1.385 0.2093,1.424 0.1046,3.165 0.2093,-2.413 0.1046,0.712 0.1046,1.977 0.2093,-1.028 0.1046,0.396 0.1046,-0.04 0.1047,-1.464 0.1046,0.198 0.1046,3.916 0.1046,-0.475 0.1047,2.255 0.1046,-3.995 0.1046,0.949 0.1046,-0.158 0.2093,-3.362 0.1046,0.87 0.1046,-0.554 0.1047,0.752 0.2092,-1.266 0.1046,0.158 0.1047,0.633 0.2092,4.707 0.1046,-4.074 0.1047,1.108 0.1046,-2.136 0.1046,1.78 0.1046,-0.752 0.1047,0.119 0.1046,0.395 0.1046,1.859 0.1046,-3.085 0.1046,0.238 0.1047,2.571 0.1046,-6.883 0.4185,4.549 0.3139,-3.679 0.2092,5.063 0.1047,4.628 0.2092,-7.634 0.2093,-0.593 0.1046,-0.91 0.1046,0.356 0.3139,8.307 0.1046,-2.928 0.2092,5.894 0.2093,-8.109 0.1046,2.927 0.3139,-6.487 0.2093,1.543 0.2092,-3.362 0.1046,4.272 0.1047,-1.938 0.2092,1.424 0.1046,5.221 0.1047,-2.571 0.4184,15.11 0.1047,-1.978 0.2092,4.114 0.1047,-3.046 0.5231,-38.17 0.1046,0.158 0.1046,-2.492 0.5232,23.139 0.1046,4.233 0.1046,-5.973 0.2092,5.34 0.1047,2.334 0.1046,4.944 0.1046,-5.538 0.1047,0.356 0.2092,2.295 0.2093,-4.707 0.1046,-0.95 0.1046,2.65 0.1046,-0.751 0.1047,-3.718 0.1046,0.593 0.3139,4.944 0.1046,-1.898 0.1046,2.808 0.3139,-3.599 0.1046,-1.227 0.1046,3.244 0.1047,-4.549 0.1046,0.633 0.1046,-1.147 0.1046,0.395 0.2093,-0.039 0.2092,2.65 0.1047,-0.712 0.1046,0.593 0.1046,-4.351 0.1046,5.578 0.1047,-0.633 0.1046,0.118 0.2092,2.018 0.1046,-0.317 0.1047,2.927 0.2092,-3.362 0.1047,0.04 0.1046,-1.701 0.1046,2.373 0.2093,-4.667 0.1046,2.333 0.1046,-3.204 0.1046,0.317 0.1047,-1.424 0.1046,1.107 0.1046,-3.678 0.1046,0.989 0.1047,-5.024 0.3138,8.623 0.2093,2.848 0.1046,-0.356 0.2093,-2.334 0.1046,-1.265 0.1046,2.333 0.1046,-2.808 0.2093,3.758 0.3139,-3.046 0.1046,3.52 0.1046,-0.949 0.1046,1.503 0.1047,3.718 0.2092,-3.52 0.1046,-0.158 0.1047,-0.712 0.1046,0.356 0.1046,2.017 0.1046,-0.91 0.1046,-4.786 0.1047,0.752 0.1046,3.362 0.2093,-1.78 0.1046,0.079 0.1046,-0.91 0.1046,-2.017 0.1047,2.294 0.1046,-2.334 0.1046,5.617 0.1046,-0.633 0.2093,-5.854 0.3139,6.171 0.1046,-1.78 0.1046,1.977 0.1046,-4.548 0.2093,2.729 0.1046,0.198 0.1046,-0.475 0.1047,-1.345 0.1046,0.554 0.1046,-0.475 0.1046,-2.017 0.1047,0.356 0.1046,-0.396 0.2092,3.679 0.2093,-4.074 0.1046,2.373 0.1046,-1.463 0.2093,2.096 0.1046,-0.712 0.3139,3.6 0.1046,-0.277 0.3139,-6.527 0.1046,3.837 0.1046,-0.91 0.2093,0.514 0.1046,-0.474 0.1046,-1.147 0.2093,4.39 0.1046,-6.289 0.1046,2.215 0.2093,-0.989 0.1046,-2.017 0.1046,1.543 0.1047,-2.374 0.1046,4.47 0.1046,-2.334 0.2093,3.877 0.2092,6.843 0.1046,-3.402 0.1047,2.69 0.1046,-5.222 0.1046,1.147 0.2093,-11.55 0.2092,4.47 0.1046,-3.441 0.1047,3.204 0.1046,-3.877 0.1046,2.136 0.1046,-0.435 0.3139,5.024 0.1046,4.074 0.1047,-0.04 0.1046,2.057 0.1046,-0.91 0.1046,4.391 0.1047,-5.815 0.1046,5.38 0.1046,-1.068 0.1046,0.198 0.2093,-4.272 0.2092,5.775 0.3139,-7.516 0.2093,3.758 0.1046,-2.531 0.1046,2.333 0.1046,-3.639 0.1047,0.04 0.1046,3.204 0.1046,-2.848 0.1046,0.949 0.1047,-1.345 0.1046,0.198 0.2092,-4.43 0.2093,6.962 0.2092,-5.499 0.2093,1.583 0.1046,-3.877 0.1046,3.956 0.1047,-2.176 0.2092,0.594 0.1046,1.542 0.2093,-1.028 0.1046,3.243 0.1046,-2.096 0.2093,4.865 0.1046,-5.617 0.209,6.566 0.21,-8.069 0.209,3.244 0.104,1.78 0.21,-5.657 0.104,-0.593 0.105,1.543 0.314,-2.097 0.104,3.125 0.105,-1.819 0.105,2.412 0.104,5.538 0.105,-6.645 0.209,3.402 0.105,-4.233 0.104,2.255 0.105,-2.492 0.105,3.639 0.104,-0.198 0.105,0.673 0.209,3.362 0.105,-0.396 0.209,-5.973 0.105,4.787 0.104,-2.453 0.105,0.238 0.105,-1.939 0.104,0.712 0.105,3.56 0.209,-5.3 0.105,-1.108 0.104,2.176 0.105,-3.165 0.209,2.018 0.105,2.413 0.104,-1.899 0.105,2.452 0.209,-1.305 0.105,1.78 0.105,-2.452 0.209,2.215 0.209,-3.6 0.105,2.413 0.104,-0.435 0.314,6.052 0.209,-4.114 0.21,3.323 0.104,-2.611 0.105,4.47 0.209,-6.527 0.105,-0.949 0.104,2.176 0.105,-0.119 0.105,-4.589 0.209,3.64 0.105,-3.798 0.209,1.978 0.104,3.56 0.105,-3.56 0.105,4.351 0.104,-2.334 0.105,0.989 0.105,-0.87 0.104,0.475 0.105,3.599 0.209,-8.03 0.105,3.837 0.104,-1.661 0.105,2.017 0.105,6.725 0.209,-8.346 0.209,0.83 0.105,-3.995 0.209,3.995 0.105,-1.424 0.104,3.283 0.105,-1.463 0.104,-4.193 0.21,5.814 0.104,-3.164 0.105,2.888 0.209,-2.769 0.105,4.549 0.104,-3.798 0.21,6.725 0.209,-8.188 0.105,2.61 0.104,5.775 0.209,-5.023 0.105,4.232 0.209,-5.696 0.105,1.78 0.105,-3.955 0.104,0.158 0.105,2.413 0.209,-3.085 0.105,0.989 0.104,-0.554 0.105,0.277 0.105,-6.566 0.209,8.741 0.104,-4.707 0.105,0.158 0.105,0.712 0.209,2.571 0.105,-0.356 0.209,4.668 0.104,-3.125 0.105,0.514 0.105,3.837 0.104,-2.611 0.105,1.543 0.105,-3.758 0.104,1.227 0.105,-1.464 0.104,5.894 0.419,-6.369 0.105,5.855 0.209,-3.086 0.104,1.226 0.21,-2.333 0.104,2.333 0.314,-7.475 0.105,0.514 0.104,-2.453 0.21,5.538 0.104,-2.967 0.21,4.984 0.209,-3.56 0.104,1.939 0.105,-0.317 0.105,0.277 0.104,-2.017 0.105,3.164 0.105,-0.395 0.104,0.909 0.105,3.442 0.418,-7.516 0.105,-0.118 0.105,1.226 0.104,4.825 0.209,-5.616 0.105,6.843 0.105,-3.877 0.104,1.108 0.105,-2.373 0.105,1.226 0.209,4.351 0.104,-3.837 0.105,3.599 0.105,-4.627 0.209,2.491 0.105,-2.847 0.104,1.542 0.105,-3.125 0.104,3.125 0.105,-2.61 0.209,3.243 0.105,-0.356 0.105,-3.125 0.104,1.306 0.105,3.797 0.209,-2.809 0.105,-6.21 0.104,7.12 0.105,-2.531 0.209,3.797 0.105,0.316 0.209,-2.056 0.209,-0.91 0.21,3.995 0.104,-1.622 0.105,-4.667 0.104,5.379 0.21,-4.588 0.104,2.65 0.105,-1.701 0.105,1.147 0.104,-0.91 0.105,2.215 0.209,-6.368 0.209,3.441 0.105,-1.147 0.105,4.945 0.104,-4.154 0.105,1.78 0.104,3.718 0.21,-7.08 0.104,2.294 0.105,-1.977 0.105,3.164 0.104,-2.294 0.314,3.955 0.105,-1.74 0.104,1.701 0.314,-5.301 0.105,-0.474 0.104,0.87 0.105,2.611 0.209,-7.437 0.523,9.493 0.105,-0.079 0.105,4.786 0.314,-5.339 0.104,-1.187 0.314,5.577 0.105,-5.933 0.104,1.068 0.105,-2.215 0.105,0.118 0.104,0.91 0.105,-0.118 0.104,0.553 0.21,3.165 0.209,-2.967 0.105,2.334 0.104,-0.594 0.105,-3.164 0.209,1.464 0.105,-1.385 0.209,3.758 0.105,-0.119 0.209,-3.757 0.209,4.548 0.418,-5.34 0.105,0.238 0.209,2.769 0.21,-1.108 0.104,3.956 0.105,-5.775 0.209,2.056 0.105,1.385 0.104,3.204 0.105,-4.945 0.105,4.391 0.209,-2.176 0.105,0.989 0.209,-1.503 0.104,-1.186 0.105,-3.521 0.314,-21.399 0.105,1.384 0.523,22.705 0.209,3.204 0.209,4.074 0.105,-1.028 0.104,2.136 0.105,5.142 0.105,-0.158 0.104,1.186 0.105,2.69 0.104,-1.74 0.105,-3.837 0.105,0.909 0.104,-7.001 0.105,1.029 0.105,5.814 0.209,-9.928 0.105,-1.503 0.104,2.531 0.209,-4.984 0.105,4.035 0.209,-4.905 0.105,2.492 0.105,-1.463 0.313,5.26 0.105,-0.988 0.209,-7.555 0.105,-0.396 0.105,-0.91 0.104,1.859 0.105,-1.265 0.104,2.294 0.105,-1.859 0.314,4.351 0.105,-3.283 0.104,0.395 0.105,-3.757 0.104,1.384 0.21,5.459 0.104,1.226 0.105,-2.571 0.104,3.125 0.105,-0.317 0.105,1.622 0.209,-2.729 0.105,-1.227 0.104,2.651 0.105,-1.504 0.105,-3.876 0.104,2.413 0.105,-2.65 0.104,5.419 0.105,-3.006 0.209,2.966 0.105,2.017 0.105,-0.83 0.104,-2.057 0.314,4.667 0.105,-5.221 0.104,2.848 0.21,-1.226 0.104,0 0.105,-1.661 0.209,2.136 0.105,0.791 0.104,-5.459 0.105,0.158 0.105,-1.621 0.209,10.442 0.104,-9.295 0.21,7.673 0.104,-3.876 0.105,3.085 0.105,-2.215 0.104,2.294 0.105,-0.316 0.104,3.243 0.105,-4.192 0.105,0.672 0.104,-1.028 0.105,-2.809 0.104,3.758 0.105,-1.147 0.105,1.582 0.104,-1.78 0.105,-4.351 0.105,0.198 0.104,-0.119 0.105,2.453 0.105,-3.165 0.104,2.809 0.105,-2.572 0.104,0.871 0.105,-0.277 0.105,2.334 0.104,-1.622 0.105,0.554 0.105,2.927 0.209,-5.617 0.104,1.028 0.21,-1.028 0.104,0.87 0.105,-3.243 0.314,7.99 0.104,-3.046 0.105,1.424 0.209,8.504 0.21,-5.854 0.313,5.063 0.21,-4.272 0.104,3.441 0.523,-8.267 0.21,6.211 0.104,-1.504 0.21,2.136 0.104,-3.52 0.105,1.78 0.209,-6.012 0.105,1.78 0.104,-3.877 0.105,2.374 0.105,-0.317 0.104,0.079 0.105,4.233 0.104,-1.82 0.105,0.712 0.105,-2.096 0.209,2.65 0.105,-0.158 0.104,-0.673 0.105,-3.006 0.104,1.543 0.105,4.192 0.105,-4.39 0.104,3.639 0.105,-0.949 0.209,-3.323 0.105,2.334 0.209,-2.848 0.105,-0.158 0.104,-0.989 0.105,2.136 0.104,-3.521 0.105,1.859 0.105,-1.542 0.209,3.56 0.105,-0.752 0.209,6.685 0.105,-1.859 0.104,1.859 0.105,-1.503 0.104,-3.244 0.21,3.323 0.104,-3.244 0.105,3.798 0.209,-5.657 0.209,2.413 0.105,-3.204 0.209,4.074 0.21,-2.254 0.104,1.384 0.105,-4.351 0.209,4.035 0.105,0.277 0.104,-0.277 0.105,0.474 0.314,-3.639 0.209,5.815 0.105,-0.989 0.104,-6.685 0.105,5.696 0.105,-0.672 0.104,-3.244 0.105,4.589 0.104,-0.356 0.105,-3.244 0.209,3.758 0.105,-0.633 0.105,0.712 0.104,-3.125 0.105,0.989 0.104,2.452 0.105,-6.328 0.105,6.091 0.104,-1.503 0.105,2.65 0.314,-4.47 0.104,-1.344 0.21,2.412 0.209,-1.107 0.105,-1.108 0.104,5.538 0.105,-2.848 0.104,3.837 0.21,-5.617 0.104,2.729 0.105,-1.977 0.105,1.542 0.104,5.182 0.209,-4.193 0.105,4.114 0.418,-9.256 0.105,-6.368 0.105,1.582 0.104,-1.068 0.21,8.821 0.104,-1.583 0.105,0.08 0.209,9.018 0.105,-2.887 0.104,-1.741 0.105,0.317 0.105,-2.492 0.209,1.977 0.105,-1.78 0.104,6.408 0.105,-5.221 0.209,2.571 0.105,0.317 0.104,-0.317 0.105,0.277 0.105,-3.283 0.104,0.435 0.105,-1.503 0.104,1.582 0.105,-2.492 0.209,1.78 0.314,-3.006 0.209,1.582 0.105,3.995 0.105,-1.384 0.104,1.107 0.105,-4.548 0.209,2.65 0.314,-5.657 0.105,3.521 0.104,-2.057 0.105,2.611 0.105,-0.436 0.104,1.068 0.209,-3.876 0.105,0.554 0.105,-0.91 0.104,0.712 0.105,1.543 0.105,-0.198 0.104,0.435 0.105,3.243 0.104,-0.079 0.105,2.769 0.419,-8.029 0.104,4.746 0.105,-1.622 0.104,2.255 0.105,-0.554 0.105,-1.898 0.104,1.503 0.105,-3.086 0.105,5.657 0.104,-0.514 0.105,-4.707 0.104,2.096 0.105,-3.362 0.105,5.458 0.104,-2.136 0.105,2.73 0.209,-6.171 0.105,-0.475 0.209,4.787 0.105,-2.215 0.209,3.164 0.105,-0.554 0.313,-6.17 0.21,7.001 0.418,10.284 0.105,-2.69 0.104,7.714 0.419,-28.717 0.523,-9.296 0.209,6.685 0.523,19.896 0.105,-2.057 0.105,0.871 0.209,7.673 0.105,-4.786 0.104,1.622 0.419,-7.793 0.104,7.358 0.21,-8.584 0.104,0.475 0.105,-0.119 0.104,0.198 0.105,-4.826 0.105,1.108 0.104,-2.334 0.21,3.56 0.104,-2.927 0.209,5.459 0.105,-0.633 0.105,-3.442 0.314,6.171 0.313,-5.577 0.21,1.78 0.104,-4.905 0.21,6.606 0.209,-5.182 0.104,3.481 0.105,-0.87 0.105,1.107 0.104,-1.78 0.21,3.6 0.104,-0.435 0.209,1.305 0.21,-2.255 0.209,1.582 0.105,-1.7 0.104,1.186 0.105,-1.345 0.104,0.633 0.105,4.351 0.209,-4.786 0.21,4.509 0.104,-1.621 0.105,-3.719 0.418,2.453 0.21,-4.47 0.104,1.424 0.105,3.758 0.104,-0.514 0.21,-4.668 0.104,0.198 0.105,0.791 0.105,-2.334 0.104,5.024 0.209,-7.397 0.21,7.99 0.104,1.266 0.105,-0.396 0.105,2.057 0.104,-3.283 0.105,2.255 0.209,-3.758 0.105,3.718 0.209,-1.898 0.105,3.362 0,0"
           style="fill:none;stroke:#000000;stroke-width:0.14987424;stroke-linecap:square;stroke-linejoin:round"
           id="path35"
           inkscape:connector-curvature="0" />
      </g>
      <path
         style="fill:none;fill-rule:evenodd;stroke:#ff0000;stroke-width:0.80000001px;stroke-linecap:butt;stroke-linejoin:miter;stroke-opacity:1"
         d="m -8.5060654,186.90489 0,15.69085"
         id="path3391"
         inkscape:connector-curvature="0" />
      <path
         inkscape:connector-curvature="0"
         id="path3393"
         d="m 49.121462,186.90489 0,15.69085"
         style="fill:none;fill-rule:evenodd;stroke:#ff0000;stroke-width:0.80000001px;stroke-linecap:butt;stroke-linejoin:miter;stroke-opacity:1" />
      <path
         style="fill:none;fill-rule:evenodd;stroke:#ff0000;stroke-width:0.80000001px;stroke-linecap:butt;stroke-linejoin:miter;stroke-opacity:1"
         d="m 164.37652,186.90489 0,15.69085"
         id="path3395"
         inkscape:connector-curvature="0" />
      <path
         inkscape:connector-curvature="0"
         id="path3397"
         d="m 241.21322,186.90489 0,15.69085"
         style="fill:none;fill-rule:evenodd;stroke:#ff0000;stroke-width:0.80000001px;stroke-linecap:butt;stroke-linejoin:miter;stroke-opacity:1" />
    </g>
  </g>
  <defs
     id="defs37">
    <clipPath
       id="p17645e3b67"
       style="stroke-linecap:butt;stroke-linejoin:round">
      <rect
         height="288"
         width="167.39999"
         x="27"
         y="36"
         id="rect40"
         style="stroke-linecap:butt;stroke-linejoin:round" />
    </clipPath>
  </defs>
</svg>
